solid OpenSCAD_Model
  facet normal -1 0 0
    outer loop
      vertex -23.5 -29.5 0
      vertex -23.5 -29.5 6
      vertex -23.5 29.5 0
    endloop
  endfacet
  facet normal -1 0 0
    outer loop
      vertex -23.5 29.5 0
      vertex -23.5 -29.5 6
      vertex -23.5 29.5 6
    endloop
  endfacet
  facet normal 0 -1 0
    outer loop
      vertex -6.56 -29.5 1
      vertex -23.5 -29.5 0
      vertex 23.5 -29.5 0
    endloop
  endfacet
  facet normal 0 -1 0
    outer loop
      vertex -17.06 -29.5 1
      vertex -17.06 -29.5 6
      vertex -23.5 -29.5 6
    endloop
  endfacet
  facet normal 0 -1 0
    outer loop
      vertex 23.5 -29.5 6
      vertex -6.56 -29.5 6
      vertex 23.5 -29.5 0
    endloop
  endfacet
  facet normal 0 -1 0
    outer loop
      vertex -17.06 -29.5 1
      vertex -23.5 -29.5 0
      vertex -6.56 -29.5 1
    endloop
  endfacet
  facet normal 0 -1 0
    outer loop
      vertex -23.5 -29.5 6
      vertex -23.5 -29.5 0
      vertex -17.06 -29.5 1
    endloop
  endfacet
  facet normal 0 -1 0
    outer loop
      vertex -6.56 -29.5 6
      vertex -6.56 -29.5 1
      vertex 23.5 -29.5 0
    endloop
  endfacet
  facet normal 0 0 -1
    outer loop
      vertex -23.5 -29.5 0
      vertex -23.5 29.5 0
      vertex 23.5 -29.5 0
    endloop
  endfacet
  facet normal 0 0 -1
    outer loop
      vertex 23.5 -29.5 0
      vertex -23.5 29.5 0
      vertex 23.5 29.5 0
    endloop
  endfacet
  facet normal 0 1 0
    outer loop
      vertex -23.5 29.5 0
      vertex -23.5 29.5 6
      vertex -16 29.5 1.5
    endloop
  endfacet
  facet normal 0 1 0
    outer loop
      vertex -23.5 29.5 0
      vertex -16 29.5 1.5
      vertex 23.5 29.5 0
    endloop
  endfacet
  facet normal 0 1 0
    outer loop
      vertex -7 29.5 6
      vertex 23.5 29.5 0
      vertex -7 29.5 1.5
    endloop
  endfacet
  facet normal 0 1 0
    outer loop
      vertex -16 29.5 1.5
      vertex -7 29.5 1.5
      vertex 23.5 29.5 0
    endloop
  endfacet
  facet normal 0 1 0
    outer loop
      vertex 23.5 29.5 0
      vertex -7 29.5 6
      vertex 23.5 29.5 6
    endloop
  endfacet
  facet normal 0 1 0
    outer loop
      vertex -16 29.5 1.5
      vertex -23.5 29.5 6
      vertex -16 29.5 6
    endloop
  endfacet
  facet normal 0 0 1
    outer loop
      vertex -23.5 29.5 6
      vertex -23.5 -29.5 6
      vertex -17.06 -29.5 6
    endloop
  endfacet
  facet normal 0 0 1
    outer loop
      vertex -16 -27 6
      vertex -23.5 29.5 6
      vertex -17.06 -27 6
    endloop
  endfacet
  facet normal 0 0 1
    outer loop
      vertex -17.06 -27 6
      vertex -23.5 29.5 6
      vertex -17.06 -29.5 6
    endloop
  endfacet
  facet normal 0 0 1
    outer loop
      vertex -16 29.5 6
      vertex -23.5 29.5 6
      vertex -16 -27 6
    endloop
  endfacet
  facet normal 1 0 0
    outer loop
      vertex -17.06 -27 1
      vertex -17.06 -27 6
      vertex -17.06 -29.5 6
    endloop
  endfacet
  facet normal 1 0 0
    outer loop
      vertex -17.06 -29.5 1
      vertex -17.06 -27 1
      vertex -17.06 -29.5 6
    endloop
  endfacet
  facet normal 0 0 1
    outer loop
      vertex -6.56 -29.5 1
      vertex -6.56 -27 1
      vertex -17.06 -27 1
    endloop
  endfacet
  facet normal 0 0 1
    outer loop
      vertex -17.06 -29.5 1
      vertex -6.56 -29.5 1
      vertex -17.06 -27 1
    endloop
  endfacet
  facet normal -1 0 0
    outer loop
      vertex -6.56 -27 6
      vertex -6.56 -27 1
      vertex -6.56 -29.5 6
    endloop
  endfacet
  facet normal -1 0 0
    outer loop
      vertex -6.56 -29.5 6
      vertex -6.56 -27 1
      vertex -6.56 -29.5 1
    endloop
  endfacet
  facet normal 0 0 1
    outer loop
      vertex -7 29.5 6
      vertex -7 -27 6
      vertex -6.56 -27 6
    endloop
  endfacet
  facet normal 0 0 1
    outer loop
      vertex 23.5 -29.5 6
      vertex -7 29.5 6
      vertex -6.56 -27 6
    endloop
  endfacet
  facet normal 0 0 1
    outer loop
      vertex -6.56 -29.5 6
      vertex 23.5 -29.5 6
      vertex -6.56 -27 6
    endloop
  endfacet
  facet normal 0 0 1
    outer loop
      vertex 23.5 -29.5 6
      vertex 23.5 29.5 6
      vertex -7 29.5 6
    endloop
  endfacet
  facet normal 1 0 0
    outer loop
      vertex 23.5 -29.5 6
      vertex 23.5 -29.5 0
      vertex 23.5 29.5 0
    endloop
  endfacet
  facet normal 1 0 0
    outer loop
      vertex 23.5 29.5 6
      vertex 23.5 -29.5 6
      vertex 23.5 29.5 0
    endloop
  endfacet
  facet normal -1 0 0
    outer loop
      vertex -7 29.5 6
      vertex -7 29.5 1.5
      vertex -7 -27 6
    endloop
  endfacet
  facet normal -1 0 0
    outer loop
      vertex -7 -27 6
      vertex -7 29.5 1.5
      vertex -7 -27 1.5
    endloop
  endfacet
  facet normal 0 0 1
    outer loop
      vertex -7 -27 1.5
      vertex -7 29.5 1.5
      vertex -16 29.5 1.5
    endloop
  endfacet
  facet normal 0 0 1
    outer loop
      vertex -16 -27 1.5
      vertex -7 -27 1.5
      vertex -16 29.5 1.5
    endloop
  endfacet
  facet normal 1 0 0
    outer loop
      vertex -16 29.5 1.5
      vertex -16 29.5 6
      vertex -16 -27 6
    endloop
  endfacet
  facet normal 1 0 0
    outer loop
      vertex -16 -27 1.5
      vertex -16 29.5 1.5
      vertex -16 -27 6
    endloop
  endfacet
  facet normal 0 -1 0
    outer loop
      vertex -6.56 -27 1
      vertex -6.56 -27 6
      vertex -7 -27 6
    endloop
  endfacet
  facet normal 0 -1 0
    outer loop
      vertex -16 -27 1.5
      vertex -6.56 -27 1
      vertex -7 -27 1.5
    endloop
  endfacet
  facet normal 0 -1 0
    outer loop
      vertex -7 -27 1.5
      vertex -6.56 -27 1
      vertex -7 -27 6
    endloop
  endfacet
  facet normal 0 -1 0
    outer loop
      vertex -17.06 -27 1
      vertex -6.56 -27 1
      vertex -16 -27 1.5
    endloop
  endfacet
  facet normal 0 -1 0
    outer loop
      vertex -17.06 -27 6
      vertex -16 -27 1.5
      vertex -16 -27 6
    endloop
  endfacet
  facet normal 0 -1 0
    outer loop
      vertex -17.06 -27 1
      vertex -16 -27 1.5
      vertex -17.06 -27 6
    endloop
  endfacet
endsolid OpenSCAD_Model
