solid OpenSCAD_Model
  facet normal -1 0 0
    outer loop
      vertex -53 0 0
      vertex -53 0 1
      vertex -53 58 0
    endloop
  endfacet
  facet normal -1 0 0
    outer loop
      vertex -53 58 0
      vertex -53 0 1
      vertex -53 58 1
    endloop
  endfacet
  facet normal -0.980785 -0.19509 0
    outer loop
      vertex -53 0 0
      vertex -52.6194 -1.91342 0
      vertex -53 0 1
    endloop
  endfacet
  facet normal -0.980785 -0.19509 0
    outer loop
      vertex -53 0 1
      vertex -52.6194 -1.91342 0
      vertex -52.6194 -1.91342 1
    endloop
  endfacet
  facet normal 0 0 -1
    outer loop
      vertex -53 0 0
      vertex -53 58 0
      vertex -52.6194 -1.91342 0
    endloop
  endfacet
  facet normal 0 0 -1
    outer loop
      vertex -52.6194 -1.91342 0
      vertex -53 58 0
      vertex -52.6194 59.9134 0
    endloop
  endfacet
  facet normal 0 0 -1
    outer loop
      vertex -52.6194 -1.91342 0
      vertex -52.6194 59.9134 0
      vertex -51.5355 61.5355 0
    endloop
  endfacet
  facet normal 0 0 -1
    outer loop
      vertex -51 58 0
      vertex -51.5355 61.5355 0
      vertex -49.9134 62.6194 0
    endloop
  endfacet
  facet normal 0 0 -1
    outer loop
      vertex -48.9271 60.8532 0
      vertex -49.9134 62.6194 0
      vertex -48 63 0
    endloop
  endfacet
  facet normal 0 0 -1
    outer loop
      vertex -45.5729 59.7634 0
      vertex -48 63 0
      vertex 0 63 0
    endloop
  endfacet
  facet normal 0 0 -1
    outer loop
      vertex -0.927051 60.8532 0
      vertex 0 63 0
      vertex 1.91342 62.6194 0
    endloop
  endfacet
  facet normal 0 0 -1
    outer loop
      vertex 0.927051 60.8532 0
      vertex 1.91342 62.6194 0
      vertex 3.53553 61.5355 0
    endloop
  endfacet
  facet normal 0 0 -1
    outer loop
      vertex 2.42705 59.7634 0
      vertex 3.53553 61.5355 0
      vertex 4.6194 59.9134 0
    endloop
  endfacet
  facet normal 0 0 -1
    outer loop
      vertex 2.42705 56.2366 0
      vertex 4.6194 59.9134 0
      vertex 5 58 0
    endloop
  endfacet
  facet normal 0 0 -1
    outer loop
      vertex -45 0 0
      vertex 5 58 0
      vertex -3 0 0
    endloop
  endfacet
  facet normal 0 0 -1
    outer loop
      vertex 2.42705 -1.76336 0
      vertex 5 0 0
      vertex 4.6194 -1.91342 0
    endloop
  endfacet
  facet normal 0 0 -1
    outer loop
      vertex 0.927051 -2.85317 0
      vertex 4.6194 -1.91342 0
      vertex 3.53553 -3.53553 0
    endloop
  endfacet
  facet normal 0 0 -1
    outer loop
      vertex -45.5729 -1.76336 0
      vertex 1.91342 -4.6194 0
      vertex 0 -5 0
    endloop
  endfacet
  facet normal 0 0 -1
    outer loop
      vertex -45.5729 -1.76336 0
      vertex 3.53553 -3.53553 0
      vertex 1.91342 -4.6194 0
    endloop
  endfacet
  facet normal 0 0 -1
    outer loop
      vertex -48.9271 -2.85317 0
      vertex 0 -5 0
      vertex -48 -5 0
    endloop
  endfacet
  facet normal 0 0 -1
    outer loop
      vertex -52.6194 -1.91342 0
      vertex -48 -5 0
      vertex -49.9134 -4.6194 0
    endloop
  endfacet
  facet normal 0 0 -1
    outer loop
      vertex -52.6194 -1.91342 0
      vertex -49.9134 -4.6194 0
      vertex -51.5355 -3.53553 0
    endloop
  endfacet
  facet normal 0 0 -1
    outer loop
      vertex -50.4271 -1.76336 0
      vertex -52.6194 -1.91342 0
      vertex -51 0 0
    endloop
  endfacet
  facet normal 0 0 -1
    outer loop
      vertex 3 58 0
      vertex 4.6194 59.9134 0
      vertex 2.42705 56.2366 0
    endloop
  endfacet
  facet normal 0 0 -1
    outer loop
      vertex -0.927051 55.1468 0
      vertex -48.9271 2.85317 0
      vertex -2.42705 56.2366 0
    endloop
  endfacet
  facet normal 0 0 -1
    outer loop
      vertex -47.0729 -2.85317 0
      vertex 0 -5 0
      vertex -48.9271 -2.85317 0
    endloop
  endfacet
  facet normal 0 0 -1
    outer loop
      vertex -52.6194 -1.91342 0
      vertex -48.9271 -2.85317 0
      vertex -48 -5 0
    endloop
  endfacet
  facet normal 0 0 -1
    outer loop
      vertex -45.5729 -1.76336 0
      vertex -0.927051 -2.85317 0
      vertex 3.53553 -3.53553 0
    endloop
  endfacet
  facet normal 0 0 -1
    outer loop
      vertex 2.42705 -1.76336 0
      vertex 4.6194 -1.91342 0
      vertex 0.927051 -2.85317 0
    endloop
  endfacet
  facet normal 0 0 -1
    outer loop
      vertex -48.9271 2.85317 0
      vertex 5 58 0
      vertex -47.0729 2.85317 0
    endloop
  endfacet
  facet normal 0 0 -1
    outer loop
      vertex -48.9271 2.85317 0
      vertex 0.927051 55.1468 0
      vertex 5 58 0
    endloop
  endfacet
  facet normal 0 0 -1
    outer loop
      vertex -45.5729 1.76336 0
      vertex 5 58 0
      vertex -45 0 0
    endloop
  endfacet
  facet normal 0 0 -1
    outer loop
      vertex 2.42705 1.76336 0
      vertex 5 58 0
      vertex 3 0 0
    endloop
  endfacet
  facet normal 0 0 -1
    outer loop
      vertex -48.9271 -2.85317 0
      vertex -52.6194 -1.91342 0
      vertex -50.4271 -1.76336 0
    endloop
  endfacet
  facet normal 0 0 -1
    outer loop
      vertex -52.6194 -1.91342 0
      vertex -51.5355 61.5355 0
      vertex -51 58 0
    endloop
  endfacet
  facet normal 0 0 -1
    outer loop
      vertex -50.4271 59.7634 0
      vertex -51 58 0
      vertex -49.9134 62.6194 0
    endloop
  endfacet
  facet normal 0 0 -1
    outer loop
      vertex -52.6194 -1.91342 0
      vertex -51 58 0
      vertex -50.4271 56.2366 0
    endloop
  endfacet
  facet normal 0 0 -1
    outer loop
      vertex -47.0729 55.1468 0
      vertex -50.4271 1.76336 0
      vertex -52.6194 -1.91342 0
    endloop
  endfacet
  facet normal 0 0 -1
    outer loop
      vertex -47.0729 55.1468 0
      vertex -48.9271 2.85317 0
      vertex -50.4271 1.76336 0
    endloop
  endfacet
  facet normal 0 0 -1
    outer loop
      vertex -47.0729 60.8532 0
      vertex -48 63 0
      vertex -45.5729 59.7634 0
    endloop
  endfacet
  facet normal 0 0 -1
    outer loop
      vertex -48.9271 2.85317 0
      vertex -47.0729 55.1468 0
      vertex 0 63 0
    endloop
  endfacet
  facet normal 0 0 -1
    outer loop
      vertex -47.0729 55.1468 0
      vertex -45.5729 56.2366 0
      vertex 0 63 0
    endloop
  endfacet
  facet normal 0 0 -1
    outer loop
      vertex -48.9271 60.8532 0
      vertex -48 63 0
      vertex -47.0729 60.8532 0
    endloop
  endfacet
  facet normal 0 0 -1
    outer loop
      vertex -45.5729 56.2366 0
      vertex -45 58 0
      vertex 0 63 0
    endloop
  endfacet
  facet normal 0 0 -1
    outer loop
      vertex -45 58 0
      vertex -45.5729 59.7634 0
      vertex 0 63 0
    endloop
  endfacet
  facet normal 0 0 -1
    outer loop
      vertex -50.4271 59.7634 0
      vertex -49.9134 62.6194 0
      vertex -48.9271 60.8532 0
    endloop
  endfacet
  facet normal 0 0 -1
    outer loop
      vertex -2.42705 -1.76336 0
      vertex -45.5729 -1.76336 0
      vertex -3 0 0
    endloop
  endfacet
  facet normal 0 0 -1
    outer loop
      vertex -47.0729 2.85317 0
      vertex 5 58 0
      vertex -45.5729 1.76336 0
    endloop
  endfacet
  facet normal 0 0 -1
    outer loop
      vertex 3 0 0
      vertex 5 58 0
      vertex 5 0 0
    endloop
  endfacet
  facet normal 0 0 -1
    outer loop
      vertex -0.927051 -2.85317 0
      vertex -45.5729 -1.76336 0
      vertex -2.42705 -1.76336 0
    endloop
  endfacet
  facet normal 0 0 -1
    outer loop
      vertex -45.5729 -1.76336 0
      vertex 0 -5 0
      vertex -47.0729 -2.85317 0
    endloop
  endfacet
  facet normal 0 0 -1
    outer loop
      vertex -0.927051 -2.85317 0
      vertex 0.927051 -2.85317 0
      vertex 3.53553 -3.53553 0
    endloop
  endfacet
  facet normal 0 0 -1
    outer loop
      vertex 3 0 0
      vertex 5 0 0
      vertex 2.42705 -1.76336 0
    endloop
  endfacet
  facet normal 0 0 -1
    outer loop
      vertex 0.927051 55.1468 0
      vertex -48.9271 2.85317 0
      vertex -0.927051 55.1468 0
    endloop
  endfacet
  facet normal 0 0 -1
    outer loop
      vertex 0.927051 2.85317 0
      vertex 5 58 0
      vertex 2.42705 1.76336 0
    endloop
  endfacet
  facet normal 0 0 -1
    outer loop
      vertex -0.927051 2.85317 0
      vertex 5 58 0
      vertex 0.927051 2.85317 0
    endloop
  endfacet
  facet normal 0 0 -1
    outer loop
      vertex -2.42705 1.76336 0
      vertex 5 58 0
      vertex -0.927051 2.85317 0
    endloop
  endfacet
  facet normal 0 0 -1
    outer loop
      vertex -3 0 0
      vertex 5 58 0
      vertex -2.42705 1.76336 0
    endloop
  endfacet
  facet normal 0 0 -1
    outer loop
      vertex -2.42705 56.2366 0
      vertex -48.9271 2.85317 0
      vertex -3 58 0
    endloop
  endfacet
  facet normal 0 0 -1
    outer loop
      vertex -47.0729 55.1468 0
      vertex -52.6194 -1.91342 0
      vertex -48.9271 55.1468 0
    endloop
  endfacet
  facet normal 0 0 -1
    outer loop
      vertex 2.42705 59.7634 0
      vertex 4.6194 59.9134 0
      vertex 3 58 0
    endloop
  endfacet
  facet normal 0 0 -1
    outer loop
      vertex 0.927051 55.1468 0
      vertex 2.42705 56.2366 0
      vertex 5 58 0
    endloop
  endfacet
  facet normal 0 0 -1
    outer loop
      vertex -45 0 0
      vertex -3 0 0
      vertex -45.5729 -1.76336 0
    endloop
  endfacet
  facet normal 0 0 -1
    outer loop
      vertex 0.927051 60.8532 0
      vertex 3.53553 61.5355 0
      vertex 2.42705 59.7634 0
    endloop
  endfacet
  facet normal 0 0 -1
    outer loop
      vertex -0.927051 60.8532 0
      vertex 1.91342 62.6194 0
      vertex 0.927051 60.8532 0
    endloop
  endfacet
  facet normal 0 0 -1
    outer loop
      vertex -2.42705 59.7634 0
      vertex 0 63 0
      vertex -0.927051 60.8532 0
    endloop
  endfacet
  facet normal 0 0 -1
    outer loop
      vertex -51 0 0
      vertex -52.6194 -1.91342 0
      vertex -50.4271 1.76336 0
    endloop
  endfacet
  facet normal 0 0 -1
    outer loop
      vertex -48.9271 2.85317 0
      vertex 0 63 0
      vertex -2.42705 59.7634 0
    endloop
  endfacet
  facet normal 0 0 -1
    outer loop
      vertex -48.9271 2.85317 0
      vertex -2.42705 59.7634 0
      vertex -3 58 0
    endloop
  endfacet
  facet normal 0 0 -1
    outer loop
      vertex -48.9271 55.1468 0
      vertex -52.6194 -1.91342 0
      vertex -50.4271 56.2366 0
    endloop
  endfacet
  facet normal -0.980785 0.19509 0
    outer loop
      vertex -53 58 0
      vertex -53 58 1
      vertex -52.6194 59.9134 0
    endloop
  endfacet
  facet normal -0.980785 0.19509 0
    outer loop
      vertex -52.6194 59.9134 0
      vertex -53 58 1
      vertex -52.6194 59.9134 1
    endloop
  endfacet
  facet normal 0 0 1
    outer loop
      vertex -53 58 1
      vertex -53 0 1
      vertex -52.6194 -1.91342 1
    endloop
  endfacet
  facet normal 0 0 1
    outer loop
      vertex -51.8838 -0.957263 1
      vertex -53 58 1
      vertex -52.6194 -1.91342 1
    endloop
  endfacet
  facet normal 0 0 1
    outer loop
      vertex -3.88377 58.9573 1
      vertex -44.4582 59.8589 1
      vertex -44 58 1
    endloop
  endfacet
  facet normal 0 0 1
    outer loop
      vertex 0.482147 3.97083 1
      vertex -45.7277 54.7081 1
      vertex -47.5179 54.0292 1
    endloop
  endfacet
  facet normal 0 0 1
    outer loop
      vertex 2.27226 61.2919 1
      vertex 3.54182 59.8589 1
      vertex 4.6194 59.9134 1
    endloop
  endfacet
  facet normal 0 0 1
    outer loop
      vertex -44.4582 59.8589 1
      vertex 1.91342 62.6194 1
      vertex 0 63 1
    endloop
  endfacet
  facet normal 0 0 1
    outer loop
      vertex -49.4184 61.7401 1
      vertex -47.5179 61.9708 1
      vertex -48 63 1
    endloop
  endfacet
  facet normal 0 0 1
    outer loop
      vertex -51.5355 61.5355 1
      vertex -53 58 1
      vertex -49.9134 62.6194 1
    endloop
  endfacet
  facet normal 0 0 1
    outer loop
      vertex -52.6194 59.9134 1
      vertex -53 58 1
      vertex -51.5355 61.5355 1
    endloop
  endfacet
  facet normal 0 0 1
    outer loop
      vertex -51.5355 -3.53553 1
      vertex -51.8838 -0.957263 1
      vertex -52.6194 -1.91342 1
    endloop
  endfacet
  facet normal 0 0 1
    outer loop
      vertex -51.8838 0.957263 1
      vertex -53 58 1
      vertex -51.8838 -0.957263 1
    endloop
  endfacet
  facet normal 0 0 1
    outer loop
      vertex -2.99404 2.65249 1
      vertex -1.41842 3.74006 1
      vertex -49.4184 54.2599 1
    endloop
  endfacet
  facet normal 0 0 1
    outer loop
      vertex -50.994 2.65249 1
      vertex -49.4184 3.74006 1
      vertex -53 58 1
    endloop
  endfacet
  facet normal 0 0 1
    outer loop
      vertex -45.7277 -3.29194 1
      vertex -47.5179 -3.97083 1
      vertex -48 -5 1
    endloop
  endfacet
  facet normal 0 0 1
    outer loop
      vertex -49.4184 3.74006 1
      vertex -47.5179 3.97083 1
      vertex -53 58 1
    endloop
  endfacet
  facet normal 0 0 1
    outer loop
      vertex -49.4184 -3.74006 1
      vertex -50.994 -2.65249 1
      vertex -49.9134 -4.6194 1
    endloop
  endfacet
  facet normal 0 0 1
    outer loop
      vertex -50.994 55.3475 1
      vertex -53 58 1
      vertex -47.5179 3.97083 1
    endloop
  endfacet
  facet normal 0 0 1
    outer loop
      vertex -1.41842 3.74006 1
      vertex -47.5179 54.0292 1
      vertex -49.4184 54.2599 1
    endloop
  endfacet
  facet normal 0 0 1
    outer loop
      vertex 0 -5 1
      vertex -47.5179 3.97083 1
      vertex -45.7277 3.29194 1
    endloop
  endfacet
  facet normal 0 0 1
    outer loop
      vertex 0 -5 1
      vertex -45.7277 3.29194 1
      vertex -44.4582 1.85889 1
    endloop
  endfacet
  facet normal 0 0 1
    outer loop
      vertex 0 -5 1
      vertex -44.4582 1.85889 1
      vertex -44 0 1
    endloop
  endfacet
  facet normal 0 0 1
    outer loop
      vertex -47.5179 -3.97083 1
      vertex -49.4184 -3.74006 1
      vertex -48 -5 1
    endloop
  endfacet
  facet normal 0 0 1
    outer loop
      vertex 0 -5 1
      vertex -44 0 1
      vertex -44.4582 -1.85889 1
    endloop
  endfacet
  facet normal 0 0 1
    outer loop
      vertex 0 -5 1
      vertex -45.7277 -3.29194 1
      vertex -48 -5 1
    endloop
  endfacet
  facet normal 0 0 1
    outer loop
      vertex 0 -5 1
      vertex -44.4582 -1.85889 1
      vertex -45.7277 -3.29194 1
    endloop
  endfacet
  facet normal 0 0 1
    outer loop
      vertex -48 -5 1
      vertex -49.4184 -3.74006 1
      vertex -49.9134 -4.6194 1
    endloop
  endfacet
  facet normal 0 0 1
    outer loop
      vertex -49.9134 -4.6194 1
      vertex -50.994 -2.65249 1
      vertex -51.5355 -3.53553 1
    endloop
  endfacet
  facet normal 0 0 1
    outer loop
      vertex -3.88377 0.957263 1
      vertex -2.99404 2.65249 1
      vertex -49.4184 54.2599 1
    endloop
  endfacet
  facet normal 0 0 1
    outer loop
      vertex -3.88377 57.0427 1
      vertex -3.88377 58.9573 1
      vertex -44 58 1
    endloop
  endfacet
  facet normal 0 0 1
    outer loop
      vertex -44.4582 59.8589 1
      vertex -1.41842 61.7401 1
      vertex 1.91342 62.6194 1
    endloop
  endfacet
  facet normal 0 0 1
    outer loop
      vertex -49.9134 62.6194 1
      vertex -50.994 60.6525 1
      vertex -48 63 1
    endloop
  endfacet
  facet normal 0 0 1
    outer loop
      vertex -49.9134 62.6194 1
      vertex -53 58 1
      vertex -50.994 60.6525 1
    endloop
  endfacet
  facet normal 0 0 1
    outer loop
      vertex -50.994 60.6525 1
      vertex -49.4184 61.7401 1
      vertex -48 63 1
    endloop
  endfacet
  facet normal 0 0 1
    outer loop
      vertex -48 63 1
      vertex -47.5179 61.9708 1
      vertex 0 63 1
    endloop
  endfacet
  facet normal 0 0 1
    outer loop
      vertex -47.5179 61.9708 1
      vertex -45.7277 61.2919 1
      vertex 0 63 1
    endloop
  endfacet
  facet normal 0 0 1
    outer loop
      vertex -45.7277 61.2919 1
      vertex -44.4582 59.8589 1
      vertex 0 63 1
    endloop
  endfacet
  facet normal 0 0 1
    outer loop
      vertex -2.99404 60.6525 1
      vertex -1.41842 61.7401 1
      vertex -44.4582 59.8589 1
    endloop
  endfacet
  facet normal 0 0 1
    outer loop
      vertex 3.54182 1.85889 1
      vertex 4 0 1
      vertex 5 0 1
    endloop
  endfacet
  facet normal 0 0 1
    outer loop
      vertex -3.88377 -0.957263 1
      vertex -50.994 55.3475 1
      vertex -47.5179 3.97083 1
    endloop
  endfacet
  facet normal 0 0 1
    outer loop
      vertex -2.99404 -2.65249 1
      vertex -3.88377 -0.957263 1
      vertex -47.5179 3.97083 1
    endloop
  endfacet
  facet normal 0 0 1
    outer loop
      vertex -1.41842 3.74006 1
      vertex 0.482147 3.97083 1
      vertex -47.5179 54.0292 1
    endloop
  endfacet
  facet normal 0 0 1
    outer loop
      vertex -3.88377 57.0427 1
      vertex -44 58 1
      vertex -44.4582 56.1411 1
    endloop
  endfacet
  facet normal 0 0 1
    outer loop
      vertex -51.8838 57.0427 1
      vertex -51.8838 58.9573 1
      vertex -53 58 1
    endloop
  endfacet
  facet normal 0 0 1
    outer loop
      vertex 0.482147 -3.97083 1
      vertex -1.41842 -3.74006 1
      vertex 0 -5 1
    endloop
  endfacet
  facet normal 0 0 1
    outer loop
      vertex 2.27226 -3.29194 1
      vertex 0.482147 -3.97083 1
      vertex 1.91342 -4.6194 1
    endloop
  endfacet
  facet normal 0 0 1
    outer loop
      vertex 0.482147 3.97083 1
      vertex -44.4582 56.1411 1
      vertex -45.7277 54.7081 1
    endloop
  endfacet
  facet normal 0 0 1
    outer loop
      vertex 3.54182 -1.85889 1
      vertex 2.27226 -3.29194 1
      vertex 3.53553 -3.53553 1
    endloop
  endfacet
  facet normal 0 0 1
    outer loop
      vertex 4 0 1
      vertex 3.54182 -1.85889 1
      vertex 4.6194 -1.91342 1
    endloop
  endfacet
  facet normal 0 0 1
    outer loop
      vertex -3.88377 57.0427 1
      vertex -44.4582 56.1411 1
      vertex 2.27226 3.29194 1
    endloop
  endfacet
  facet normal 0 0 1
    outer loop
      vertex 5 58 1
      vertex 3.54182 1.85889 1
      vertex 5 0 1
    endloop
  endfacet
  facet normal 0 0 1
    outer loop
      vertex 5 58 1
      vertex 2.27226 3.29194 1
      vertex 3.54182 1.85889 1
    endloop
  endfacet
  facet normal 0 0 1
    outer loop
      vertex 5 0 1
      vertex 4 0 1
      vertex 4.6194 -1.91342 1
    endloop
  endfacet
  facet normal 0 0 1
    outer loop
      vertex 4.6194 -1.91342 1
      vertex 3.54182 -1.85889 1
      vertex 3.53553 -3.53553 1
    endloop
  endfacet
  facet normal 0 0 1
    outer loop
      vertex 3.53553 -3.53553 1
      vertex 2.27226 -3.29194 1
      vertex 1.91342 -4.6194 1
    endloop
  endfacet
  facet normal 0 0 1
    outer loop
      vertex 1.91342 -4.6194 1
      vertex 0.482147 -3.97083 1
      vertex 0 -5 1
    endloop
  endfacet
  facet normal 0 0 1
    outer loop
      vertex 0 -5 1
      vertex -1.41842 -3.74006 1
      vertex -47.5179 3.97083 1
    endloop
  endfacet
  facet normal 0 0 1
    outer loop
      vertex -1.41842 -3.74006 1
      vertex -2.99404 -2.65249 1
      vertex -47.5179 3.97083 1
    endloop
  endfacet
  facet normal 0 0 1
    outer loop
      vertex -2.99404 55.3475 1
      vertex -3.88377 57.0427 1
      vertex 2.27226 3.29194 1
    endloop
  endfacet
  facet normal 0 0 1
    outer loop
      vertex -3.88377 58.9573 1
      vertex -2.99404 60.6525 1
      vertex -44.4582 59.8589 1
    endloop
  endfacet
  facet normal 0 0 1
    outer loop
      vertex 4 58 1
      vertex 3.54182 56.1411 1
      vertex 5 58 1
    endloop
  endfacet
  facet normal 0 0 1
    outer loop
      vertex 3.54182 59.8589 1
      vertex 5 58 1
      vertex 4.6194 59.9134 1
    endloop
  endfacet
  facet normal 0 0 1
    outer loop
      vertex 3.54182 59.8589 1
      vertex 4 58 1
      vertex 5 58 1
    endloop
  endfacet
  facet normal 0 0 1
    outer loop
      vertex -51.8838 58.9573 1
      vertex -50.994 60.6525 1
      vertex -53 58 1
    endloop
  endfacet
  facet normal 0 0 1
    outer loop
      vertex 1.91342 62.6194 1
      vertex 0.482147 61.9708 1
      vertex 3.53553 61.5355 1
    endloop
  endfacet
  facet normal 0 0 1
    outer loop
      vertex 1.91342 62.6194 1
      vertex -1.41842 61.7401 1
      vertex 0.482147 61.9708 1
    endloop
  endfacet
  facet normal 0 0 1
    outer loop
      vertex 3.53553 61.5355 1
      vertex 2.27226 61.2919 1
      vertex 4.6194 59.9134 1
    endloop
  endfacet
  facet normal 0 0 1
    outer loop
      vertex 0.482147 61.9708 1
      vertex 2.27226 61.2919 1
      vertex 3.53553 61.5355 1
    endloop
  endfacet
  facet normal 0 0 1
    outer loop
      vertex 5 58 1
      vertex 3.54182 56.1411 1
      vertex 2.27226 3.29194 1
    endloop
  endfacet
  facet normal 0 0 1
    outer loop
      vertex 3.54182 56.1411 1
      vertex 2.27226 54.7081 1
      vertex 2.27226 3.29194 1
    endloop
  endfacet
  facet normal 0 0 1
    outer loop
      vertex 2.27226 54.7081 1
      vertex 0.482147 54.0292 1
      vertex 2.27226 3.29194 1
    endloop
  endfacet
  facet normal 0 0 1
    outer loop
      vertex 0.482147 54.0292 1
      vertex -1.41842 54.2599 1
      vertex 2.27226 3.29194 1
    endloop
  endfacet
  facet normal 0 0 1
    outer loop
      vertex -1.41842 54.2599 1
      vertex -2.99404 55.3475 1
      vertex 2.27226 3.29194 1
    endloop
  endfacet
  facet normal 0 0 1
    outer loop
      vertex -51.8838 0.957263 1
      vertex -50.994 2.65249 1
      vertex -53 58 1
    endloop
  endfacet
  facet normal 0 0 1
    outer loop
      vertex -50.994 -2.65249 1
      vertex -51.8838 -0.957263 1
      vertex -51.5355 -3.53553 1
    endloop
  endfacet
  facet normal 0 0 1
    outer loop
      vertex 0.482147 3.97083 1
      vertex 2.27226 3.29194 1
      vertex -44.4582 56.1411 1
    endloop
  endfacet
  facet normal 0 0 1
    outer loop
      vertex -3.88377 -0.957263 1
      vertex -3.88377 0.957263 1
      vertex -49.4184 54.2599 1
    endloop
  endfacet
  facet normal 0 0 1
    outer loop
      vertex -3.88377 -0.957263 1
      vertex -49.4184 54.2599 1
      vertex -50.994 55.3475 1
    endloop
  endfacet
  facet normal 0 0 1
    outer loop
      vertex -50.994 55.3475 1
      vertex -51.8838 57.0427 1
      vertex -53 58 1
    endloop
  endfacet
  facet normal -0.83147 -0.55557 0
    outer loop
      vertex -52.6194 -1.91342 0
      vertex -51.5355 -3.53553 0
      vertex -52.6194 -1.91342 1
    endloop
  endfacet
  facet normal -0.83147 -0.55557 0
    outer loop
      vertex -52.6194 -1.91342 1
      vertex -51.5355 -3.53553 0
      vertex -51.5355 -3.53553 1
    endloop
  endfacet
  facet normal -0.55557 -0.83147 0
    outer loop
      vertex -51.5355 -3.53553 1
      vertex -51.5355 -3.53553 0
      vertex -49.9134 -4.6194 0
    endloop
  endfacet
  facet normal -0.55557 -0.83147 0
    outer loop
      vertex -49.9134 -4.6194 1
      vertex -51.5355 -3.53553 1
      vertex -49.9134 -4.6194 0
    endloop
  endfacet
  facet normal -0.19509 -0.980785 0
    outer loop
      vertex -49.9134 -4.6194 1
      vertex -49.9134 -4.6194 0
      vertex -48 -5 0
    endloop
  endfacet
  facet normal -0.19509 -0.980785 0
    outer loop
      vertex -48 -5 1
      vertex -49.9134 -4.6194 1
      vertex -48 -5 0
    endloop
  endfacet
  facet normal 0 -1 0
    outer loop
      vertex -48 -5 1
      vertex -48 -5 0
      vertex 0 -5 0
    endloop
  endfacet
  facet normal 0 -1 0
    outer loop
      vertex 0 -5 1
      vertex -48 -5 1
      vertex 0 -5 0
    endloop
  endfacet
  facet normal 0.19509 -0.980785 0
    outer loop
      vertex 0 -5 1
      vertex 0 -5 0
      vertex 1.91342 -4.6194 0
    endloop
  endfacet
  facet normal 0.19509 -0.980785 0
    outer loop
      vertex 1.91342 -4.6194 1
      vertex 0 -5 1
      vertex 1.91342 -4.6194 0
    endloop
  endfacet
  facet normal 0.55557 -0.83147 0
    outer loop
      vertex 1.91342 -4.6194 1
      vertex 1.91342 -4.6194 0
      vertex 3.53553 -3.53553 0
    endloop
  endfacet
  facet normal 0.55557 -0.83147 0
    outer loop
      vertex 3.53553 -3.53553 1
      vertex 1.91342 -4.6194 1
      vertex 3.53553 -3.53553 0
    endloop
  endfacet
  facet normal 0.83147 -0.55557 0
    outer loop
      vertex 3.53553 -3.53553 1
      vertex 3.53553 -3.53553 0
      vertex 4.6194 -1.91342 0
    endloop
  endfacet
  facet normal 0.83147 -0.55557 0
    outer loop
      vertex 4.6194 -1.91342 1
      vertex 3.53553 -3.53553 1
      vertex 4.6194 -1.91342 0
    endloop
  endfacet
  facet normal 0.980785 -0.19509 0
    outer loop
      vertex 4.6194 -1.91342 1
      vertex 4.6194 -1.91342 0
      vertex 5 0 0
    endloop
  endfacet
  facet normal 0.980785 -0.19509 0
    outer loop
      vertex 5 0 1
      vertex 4.6194 -1.91342 1
      vertex 5 0 0
    endloop
  endfacet
  facet normal 1 0 0
    outer loop
      vertex 5 0 1
      vertex 5 0 0
      vertex 5 58 0
    endloop
  endfacet
  facet normal 1 0 0
    outer loop
      vertex 5 58 1
      vertex 5 0 1
      vertex 5 58 0
    endloop
  endfacet
  facet normal 0.980785 0.19509 0
    outer loop
      vertex 5 58 0
      vertex 4.6194 59.9134 0
      vertex 4.6194 59.9134 1
    endloop
  endfacet
  facet normal 0.980785 0.19509 0
    outer loop
      vertex 5 58 1
      vertex 5 58 0
      vertex 4.6194 59.9134 1
    endloop
  endfacet
  facet normal 0.83147 0.55557 0
    outer loop
      vertex 4.6194 59.9134 0
      vertex 3.53553 61.5355 0
      vertex 3.53553 61.5355 1
    endloop
  endfacet
  facet normal 0.83147 0.55557 0
    outer loop
      vertex 4.6194 59.9134 1
      vertex 4.6194 59.9134 0
      vertex 3.53553 61.5355 1
    endloop
  endfacet
  facet normal 0.55557 0.83147 0
    outer loop
      vertex 1.91342 62.6194 0
      vertex 1.91342 62.6194 1
      vertex 3.53553 61.5355 0
    endloop
  endfacet
  facet normal 0.55557 0.83147 0
    outer loop
      vertex 3.53553 61.5355 0
      vertex 1.91342 62.6194 1
      vertex 3.53553 61.5355 1
    endloop
  endfacet
  facet normal 0.19509 0.980785 0
    outer loop
      vertex 0 63 0
      vertex 0 63 1
      vertex 1.91342 62.6194 0
    endloop
  endfacet
  facet normal 0.19509 0.980785 0
    outer loop
      vertex 1.91342 62.6194 0
      vertex 0 63 1
      vertex 1.91342 62.6194 1
    endloop
  endfacet
  facet normal 0 1 0
    outer loop
      vertex -48 63 0
      vertex -48 63 1
      vertex 0 63 0
    endloop
  endfacet
  facet normal 0 1 0
    outer loop
      vertex 0 63 0
      vertex -48 63 1
      vertex 0 63 1
    endloop
  endfacet
  facet normal -0.19509 0.980785 0
    outer loop
      vertex -49.9134 62.6194 0
      vertex -49.9134 62.6194 1
      vertex -48 63 0
    endloop
  endfacet
  facet normal -0.19509 0.980785 0
    outer loop
      vertex -48 63 0
      vertex -49.9134 62.6194 1
      vertex -48 63 1
    endloop
  endfacet
  facet normal -0.55557 0.83147 0
    outer loop
      vertex -51.5355 61.5355 0
      vertex -51.5355 61.5355 1
      vertex -49.9134 62.6194 0
    endloop
  endfacet
  facet normal -0.55557 0.83147 0
    outer loop
      vertex -49.9134 62.6194 0
      vertex -51.5355 61.5355 1
      vertex -49.9134 62.6194 1
    endloop
  endfacet
  facet normal -0.83147 0.55557 0
    outer loop
      vertex -52.6194 59.9134 0
      vertex -52.6194 59.9134 1
      vertex -51.5355 61.5355 0
    endloop
  endfacet
  facet normal -0.83147 0.55557 0
    outer loop
      vertex -51.5355 61.5355 0
      vertex -52.6194 59.9134 1
      vertex -51.5355 61.5355 1
    endloop
  endfacet
  facet normal 0.951057 -0.309017 0
    outer loop
      vertex -50.4271 1.76336 0
      vertex -50.4271 1.76336 4
      vertex -51 0 4
    endloop
  endfacet
  facet normal 0.951057 -0.309017 0
    outer loop
      vertex -51 0 0
      vertex -50.4271 1.76336 0
      vertex -51 0 4
    endloop
  endfacet
  facet normal 0.951057 0.309017 0
    outer loop
      vertex -51 0 4
      vertex -50.4271 -1.76336 4
      vertex -50.4271 -1.76336 0
    endloop
  endfacet
  facet normal 0.951057 0.309017 0
    outer loop
      vertex -51 0 0
      vertex -51 0 4
      vertex -50.4271 -1.76336 0
    endloop
  endfacet
  facet normal 0.587785 -0.809017 0
    outer loop
      vertex -48.9271 2.85317 0
      vertex -48.9271 2.85317 4
      vertex -50.4271 1.76336 4
    endloop
  endfacet
  facet normal 0.587785 -0.809017 0
    outer loop
      vertex -50.4271 1.76336 0
      vertex -48.9271 2.85317 0
      vertex -50.4271 1.76336 4
    endloop
  endfacet
  facet normal 0 -1 0
    outer loop
      vertex -47.0729 2.85317 0
      vertex -47.0729 2.85317 4
      vertex -48.9271 2.85317 4
    endloop
  endfacet
  facet normal 0 -1 0
    outer loop
      vertex -48.9271 2.85317 0
      vertex -47.0729 2.85317 0
      vertex -48.9271 2.85317 4
    endloop
  endfacet
  facet normal -0.587785 -0.809017 0
    outer loop
      vertex -45.5729 1.76336 0
      vertex -45.5729 1.76336 4
      vertex -47.0729 2.85317 4
    endloop
  endfacet
  facet normal -0.587785 -0.809017 0
    outer loop
      vertex -47.0729 2.85317 0
      vertex -45.5729 1.76336 0
      vertex -47.0729 2.85317 4
    endloop
  endfacet
  facet normal -0.951057 -0.309017 0
    outer loop
      vertex -45 0 4
      vertex -45.5729 1.76336 4
      vertex -45 0 0
    endloop
  endfacet
  facet normal -0.951057 -0.309017 0
    outer loop
      vertex -45 0 0
      vertex -45.5729 1.76336 4
      vertex -45.5729 1.76336 0
    endloop
  endfacet
  facet normal -0.951057 0.309017 0
    outer loop
      vertex -45 0 4
      vertex -45 0 0
      vertex -45.5729 -1.76336 4
    endloop
  endfacet
  facet normal -0.951057 0.309017 0
    outer loop
      vertex -45.5729 -1.76336 4
      vertex -45 0 0
      vertex -45.5729 -1.76336 0
    endloop
  endfacet
  facet normal -0.587785 0.809017 0
    outer loop
      vertex -45.5729 -1.76336 4
      vertex -45.5729 -1.76336 0
      vertex -47.0729 -2.85317 4
    endloop
  endfacet
  facet normal -0.587785 0.809017 0
    outer loop
      vertex -47.0729 -2.85317 4
      vertex -45.5729 -1.76336 0
      vertex -47.0729 -2.85317 0
    endloop
  endfacet
  facet normal 0 1 0
    outer loop
      vertex -47.0729 -2.85317 4
      vertex -47.0729 -2.85317 0
      vertex -48.9271 -2.85317 4
    endloop
  endfacet
  facet normal 0 1 0
    outer loop
      vertex -48.9271 -2.85317 4
      vertex -47.0729 -2.85317 0
      vertex -48.9271 -2.85317 0
    endloop
  endfacet
  facet normal 0.587785 0.809017 0
    outer loop
      vertex -48.9271 -2.85317 4
      vertex -48.9271 -2.85317 0
      vertex -50.4271 -1.76336 4
    endloop
  endfacet
  facet normal 0.587785 0.809017 0
    outer loop
      vertex -50.4271 -1.76336 4
      vertex -48.9271 -2.85317 0
      vertex -50.4271 -1.76336 0
    endloop
  endfacet
  facet normal 0.951057 0.309017 0
    outer loop
      vertex -51 58 4
      vertex -50.4271 56.2366 4
      vertex -50.4271 56.2366 0
    endloop
  endfacet
  facet normal 0.951057 0.309017 0
    outer loop
      vertex -51 58 0
      vertex -51 58 4
      vertex -50.4271 56.2366 0
    endloop
  endfacet
  facet normal 0.951057 -0.309017 0
    outer loop
      vertex -50.4271 59.7634 0
      vertex -50.4271 59.7634 4
      vertex -51 58 4
    endloop
  endfacet
  facet normal 0.951057 -0.309017 0
    outer loop
      vertex -51 58 0
      vertex -50.4271 59.7634 0
      vertex -51 58 4
    endloop
  endfacet
  facet normal 0.587785 -0.809017 0
    outer loop
      vertex -48.9271 60.8532 0
      vertex -48.9271 60.8532 4
      vertex -50.4271 59.7634 4
    endloop
  endfacet
  facet normal 0.587785 -0.809017 0
    outer loop
      vertex -50.4271 59.7634 0
      vertex -48.9271 60.8532 0
      vertex -50.4271 59.7634 4
    endloop
  endfacet
  facet normal 0 -1 0
    outer loop
      vertex -47.0729 60.8532 0
      vertex -47.0729 60.8532 4
      vertex -48.9271 60.8532 4
    endloop
  endfacet
  facet normal 0 -1 0
    outer loop
      vertex -48.9271 60.8532 0
      vertex -47.0729 60.8532 0
      vertex -48.9271 60.8532 4
    endloop
  endfacet
  facet normal -0.587785 -0.809017 0
    outer loop
      vertex -45.5729 59.7634 0
      vertex -45.5729 59.7634 4
      vertex -47.0729 60.8532 4
    endloop
  endfacet
  facet normal -0.587785 -0.809017 0
    outer loop
      vertex -47.0729 60.8532 0
      vertex -45.5729 59.7634 0
      vertex -47.0729 60.8532 4
    endloop
  endfacet
  facet normal -0.951057 -0.309017 0
    outer loop
      vertex -45 58 4
      vertex -45.5729 59.7634 4
      vertex -45 58 0
    endloop
  endfacet
  facet normal -0.951057 -0.309017 0
    outer loop
      vertex -45 58 0
      vertex -45.5729 59.7634 4
      vertex -45.5729 59.7634 0
    endloop
  endfacet
  facet normal -0.951057 0.309017 0
    outer loop
      vertex -45 58 4
      vertex -45 58 0
      vertex -45.5729 56.2366 4
    endloop
  endfacet
  facet normal -0.951057 0.309017 0
    outer loop
      vertex -45.5729 56.2366 4
      vertex -45 58 0
      vertex -45.5729 56.2366 0
    endloop
  endfacet
  facet normal -0.587785 0.809017 0
    outer loop
      vertex -45.5729 56.2366 4
      vertex -45.5729 56.2366 0
      vertex -47.0729 55.1468 4
    endloop
  endfacet
  facet normal -0.587785 0.809017 0
    outer loop
      vertex -47.0729 55.1468 4
      vertex -45.5729 56.2366 0
      vertex -47.0729 55.1468 0
    endloop
  endfacet
  facet normal 0 1 0
    outer loop
      vertex -47.0729 55.1468 4
      vertex -47.0729 55.1468 0
      vertex -48.9271 55.1468 4
    endloop
  endfacet
  facet normal 0 1 0
    outer loop
      vertex -48.9271 55.1468 4
      vertex -47.0729 55.1468 0
      vertex -48.9271 55.1468 0
    endloop
  endfacet
  facet normal 0.587785 0.809017 0
    outer loop
      vertex -48.9271 55.1468 4
      vertex -48.9271 55.1468 0
      vertex -50.4271 56.2366 4
    endloop
  endfacet
  facet normal 0.587785 0.809017 0
    outer loop
      vertex -50.4271 56.2366 4
      vertex -48.9271 55.1468 0
      vertex -50.4271 56.2366 0
    endloop
  endfacet
  facet normal 0.951057 -0.309017 0
    outer loop
      vertex -2.42705 1.76336 0
      vertex -2.42705 1.76336 4
      vertex -3 0 4
    endloop
  endfacet
  facet normal 0.951057 -0.309017 0
    outer loop
      vertex -3 0 0
      vertex -2.42705 1.76336 0
      vertex -3 0 4
    endloop
  endfacet
  facet normal 0.951057 0.309017 0
    outer loop
      vertex -3 0 4
      vertex -2.42705 -1.76336 4
      vertex -2.42705 -1.76336 0
    endloop
  endfacet
  facet normal 0.951057 0.309017 0
    outer loop
      vertex -3 0 0
      vertex -3 0 4
      vertex -2.42705 -1.76336 0
    endloop
  endfacet
  facet normal 0.587785 -0.809017 0
    outer loop
      vertex -0.927051 2.85317 0
      vertex -0.927051 2.85317 4
      vertex -2.42705 1.76336 4
    endloop
  endfacet
  facet normal 0.587785 -0.809017 0
    outer loop
      vertex -2.42705 1.76336 0
      vertex -0.927051 2.85317 0
      vertex -2.42705 1.76336 4
    endloop
  endfacet
  facet normal 0 -1 0
    outer loop
      vertex 0.927051 2.85317 0
      vertex 0.927051 2.85317 4
      vertex -0.927051 2.85317 4
    endloop
  endfacet
  facet normal 0 -1 0
    outer loop
      vertex -0.927051 2.85317 0
      vertex 0.927051 2.85317 0
      vertex -0.927051 2.85317 4
    endloop
  endfacet
  facet normal -0.587785 -0.809017 0
    outer loop
      vertex 2.42705 1.76336 0
      vertex 2.42705 1.76336 4
      vertex 0.927051 2.85317 4
    endloop
  endfacet
  facet normal -0.587785 -0.809017 0
    outer loop
      vertex 0.927051 2.85317 0
      vertex 2.42705 1.76336 0
      vertex 0.927051 2.85317 4
    endloop
  endfacet
  facet normal -0.951057 -0.309017 0
    outer loop
      vertex 3 0 4
      vertex 2.42705 1.76336 4
      vertex 3 0 0
    endloop
  endfacet
  facet normal -0.951057 -0.309017 0
    outer loop
      vertex 3 0 0
      vertex 2.42705 1.76336 4
      vertex 2.42705 1.76336 0
    endloop
  endfacet
  facet normal -0.951057 0.309017 0
    outer loop
      vertex 3 0 4
      vertex 3 0 0
      vertex 2.42705 -1.76336 4
    endloop
  endfacet
  facet normal -0.951057 0.309017 0
    outer loop
      vertex 2.42705 -1.76336 4
      vertex 3 0 0
      vertex 2.42705 -1.76336 0
    endloop
  endfacet
  facet normal -0.587785 0.809017 0
    outer loop
      vertex 2.42705 -1.76336 4
      vertex 2.42705 -1.76336 0
      vertex 0.927051 -2.85317 4
    endloop
  endfacet
  facet normal -0.587785 0.809017 0
    outer loop
      vertex 0.927051 -2.85317 4
      vertex 2.42705 -1.76336 0
      vertex 0.927051 -2.85317 0
    endloop
  endfacet
  facet normal 0 1 0
    outer loop
      vertex 0.927051 -2.85317 4
      vertex 0.927051 -2.85317 0
      vertex -0.927051 -2.85317 4
    endloop
  endfacet
  facet normal 0 1 0
    outer loop
      vertex -0.927051 -2.85317 4
      vertex 0.927051 -2.85317 0
      vertex -0.927051 -2.85317 0
    endloop
  endfacet
  facet normal 0.587785 0.809017 0
    outer loop
      vertex -0.927051 -2.85317 4
      vertex -0.927051 -2.85317 0
      vertex -2.42705 -1.76336 4
    endloop
  endfacet
  facet normal 0.587785 0.809017 0
    outer loop
      vertex -2.42705 -1.76336 4
      vertex -0.927051 -2.85317 0
      vertex -2.42705 -1.76336 0
    endloop
  endfacet
  facet normal 0.951057 -0.309017 0
    outer loop
      vertex -2.42705 59.7634 0
      vertex -2.42705 59.7634 4
      vertex -3 58 4
    endloop
  endfacet
  facet normal 0.951057 -0.309017 0
    outer loop
      vertex -3 58 0
      vertex -2.42705 59.7634 0
      vertex -3 58 4
    endloop
  endfacet
  facet normal 0.951057 0.309017 0
    outer loop
      vertex -3 58 4
      vertex -2.42705 56.2366 4
      vertex -2.42705 56.2366 0
    endloop
  endfacet
  facet normal 0.951057 0.309017 0
    outer loop
      vertex -3 58 0
      vertex -3 58 4
      vertex -2.42705 56.2366 0
    endloop
  endfacet
  facet normal 0.587785 -0.809017 0
    outer loop
      vertex -0.927051 60.8532 0
      vertex -0.927051 60.8532 4
      vertex -2.42705 59.7634 4
    endloop
  endfacet
  facet normal 0.587785 -0.809017 0
    outer loop
      vertex -2.42705 59.7634 0
      vertex -0.927051 60.8532 0
      vertex -2.42705 59.7634 4
    endloop
  endfacet
  facet normal 0 -1 0
    outer loop
      vertex 0.927051 60.8532 0
      vertex 0.927051 60.8532 4
      vertex -0.927051 60.8532 4
    endloop
  endfacet
  facet normal 0 -1 0
    outer loop
      vertex -0.927051 60.8532 0
      vertex 0.927051 60.8532 0
      vertex -0.927051 60.8532 4
    endloop
  endfacet
  facet normal -0.587785 -0.809017 0
    outer loop
      vertex 2.42705 59.7634 0
      vertex 2.42705 59.7634 4
      vertex 0.927051 60.8532 4
    endloop
  endfacet
  facet normal -0.587785 -0.809017 0
    outer loop
      vertex 0.927051 60.8532 0
      vertex 2.42705 59.7634 0
      vertex 0.927051 60.8532 4
    endloop
  endfacet
  facet normal -0.951057 -0.309017 0
    outer loop
      vertex 3 58 4
      vertex 2.42705 59.7634 4
      vertex 3 58 0
    endloop
  endfacet
  facet normal -0.951057 -0.309017 0
    outer loop
      vertex 3 58 0
      vertex 2.42705 59.7634 4
      vertex 2.42705 59.7634 0
    endloop
  endfacet
  facet normal -0.951057 0.309017 0
    outer loop
      vertex 3 58 4
      vertex 3 58 0
      vertex 2.42705 56.2366 4
    endloop
  endfacet
  facet normal -0.951057 0.309017 0
    outer loop
      vertex 2.42705 56.2366 4
      vertex 3 58 0
      vertex 2.42705 56.2366 0
    endloop
  endfacet
  facet normal -0.587785 0.809017 0
    outer loop
      vertex 2.42705 56.2366 4
      vertex 2.42705 56.2366 0
      vertex 0.927051 55.1468 4
    endloop
  endfacet
  facet normal -0.587785 0.809017 0
    outer loop
      vertex 0.927051 55.1468 4
      vertex 2.42705 56.2366 0
      vertex 0.927051 55.1468 0
    endloop
  endfacet
  facet normal 0 1 0
    outer loop
      vertex 0.927051 55.1468 4
      vertex 0.927051 55.1468 0
      vertex -0.927051 55.1468 4
    endloop
  endfacet
  facet normal 0 1 0
    outer loop
      vertex -0.927051 55.1468 4
      vertex 0.927051 55.1468 0
      vertex -0.927051 55.1468 0
    endloop
  endfacet
  facet normal 0.587785 0.809017 0
    outer loop
      vertex -0.927051 55.1468 4
      vertex -0.927051 55.1468 0
      vertex -2.42705 56.2366 4
    endloop
  endfacet
  facet normal 0.587785 0.809017 0
    outer loop
      vertex -2.42705 56.2366 4
      vertex -0.927051 55.1468 0
      vertex -2.42705 56.2366 0
    endloop
  endfacet
  facet normal -1 0 0
    outer loop
      vertex -51.8838 -0.957263 1
      vertex -51.8838 -0.957263 4
      vertex -51.8838 0.957263 1
    endloop
  endfacet
  facet normal -1 0 0
    outer loop
      vertex -51.8838 0.957263 1
      vertex -51.8838 -0.957263 4
      vertex -51.8838 0.957263 4
    endloop
  endfacet
  facet normal -0.885456 -0.464723 0
    outer loop
      vertex -51.8838 -0.957263 1
      vertex -50.994 -2.65249 1
      vertex -51.8838 -0.957263 4
    endloop
  endfacet
  facet normal -0.885456 -0.464723 0
    outer loop
      vertex -51.8838 -0.957263 4
      vertex -50.994 -2.65249 1
      vertex -50.994 -2.65249 4
    endloop
  endfacet
  facet normal -0.568065 -0.822984 0
    outer loop
      vertex -50.994 -2.65249 4
      vertex -50.994 -2.65249 1
      vertex -49.4184 -3.74006 1
    endloop
  endfacet
  facet normal -0.568065 -0.822984 0
    outer loop
      vertex -49.4184 -3.74006 4
      vertex -50.994 -2.65249 4
      vertex -49.4184 -3.74006 1
    endloop
  endfacet
  facet normal -0.120536 -0.992709 0
    outer loop
      vertex -49.4184 -3.74006 4
      vertex -49.4184 -3.74006 1
      vertex -47.5179 -3.97083 1
    endloop
  endfacet
  facet normal -0.120536 -0.992709 0
    outer loop
      vertex -47.5179 -3.97083 4
      vertex -49.4184 -3.74006 4
      vertex -47.5179 -3.97083 1
    endloop
  endfacet
  facet normal 0.354605 -0.935016 0
    outer loop
      vertex -47.5179 -3.97083 4
      vertex -47.5179 -3.97083 1
      vertex -45.7277 -3.29194 1
    endloop
  endfacet
  facet normal 0.354605 -0.935016 0
    outer loop
      vertex -45.7277 -3.29194 4
      vertex -47.5179 -3.97083 4
      vertex -45.7277 -3.29194 1
    endloop
  endfacet
  facet normal 0.748511 -0.663123 0
    outer loop
      vertex -45.7277 -3.29194 4
      vertex -45.7277 -3.29194 1
      vertex -44.4582 -1.85889 1
    endloop
  endfacet
  facet normal 0.748511 -0.663123 0
    outer loop
      vertex -44.4582 -1.85889 4
      vertex -45.7277 -3.29194 4
      vertex -44.4582 -1.85889 1
    endloop
  endfacet
  facet normal 0.970942 -0.239316 0
    outer loop
      vertex -44.4582 -1.85889 4
      vertex -44.4582 -1.85889 1
      vertex -44 0 1
    endloop
  endfacet
  facet normal 0.970942 -0.239316 0
    outer loop
      vertex -44 0 4
      vertex -44.4582 -1.85889 4
      vertex -44 0 1
    endloop
  endfacet
  facet normal 0.970942 0.239316 0
    outer loop
      vertex -44 0 1
      vertex -44.4582 1.85889 1
      vertex -44.4582 1.85889 4
    endloop
  endfacet
  facet normal 0.970942 0.239316 0
    outer loop
      vertex -44 0 4
      vertex -44 0 1
      vertex -44.4582 1.85889 4
    endloop
  endfacet
  facet normal 0.748511 0.663123 0
    outer loop
      vertex -44.4582 1.85889 1
      vertex -45.7277 3.29194 1
      vertex -45.7277 3.29194 4
    endloop
  endfacet
  facet normal 0.748511 0.663123 0
    outer loop
      vertex -44.4582 1.85889 4
      vertex -44.4582 1.85889 1
      vertex -45.7277 3.29194 4
    endloop
  endfacet
  facet normal 0.354605 0.935016 0
    outer loop
      vertex -47.5179 3.97083 1
      vertex -47.5179 3.97083 4
      vertex -45.7277 3.29194 1
    endloop
  endfacet
  facet normal 0.354605 0.935016 0
    outer loop
      vertex -45.7277 3.29194 1
      vertex -47.5179 3.97083 4
      vertex -45.7277 3.29194 4
    endloop
  endfacet
  facet normal -0.120536 0.992709 0
    outer loop
      vertex -49.4184 3.74006 1
      vertex -49.4184 3.74006 4
      vertex -47.5179 3.97083 1
    endloop
  endfacet
  facet normal -0.120536 0.992709 0
    outer loop
      vertex -47.5179 3.97083 1
      vertex -49.4184 3.74006 4
      vertex -47.5179 3.97083 4
    endloop
  endfacet
  facet normal -0.568065 0.822984 0
    outer loop
      vertex -50.994 2.65249 1
      vertex -50.994 2.65249 4
      vertex -49.4184 3.74006 1
    endloop
  endfacet
  facet normal -0.568065 0.822984 0
    outer loop
      vertex -49.4184 3.74006 1
      vertex -50.994 2.65249 4
      vertex -49.4184 3.74006 4
    endloop
  endfacet
  facet normal -0.885456 0.464723 0
    outer loop
      vertex -51.8838 0.957263 1
      vertex -51.8838 0.957263 4
      vertex -50.994 2.65249 1
    endloop
  endfacet
  facet normal -0.885456 0.464723 0
    outer loop
      vertex -50.994 2.65249 1
      vertex -51.8838 0.957263 4
      vertex -50.994 2.65249 4
    endloop
  endfacet
  facet normal -1 0 0
    outer loop
      vertex -51.8838 57.0427 1
      vertex -51.8838 57.0427 4
      vertex -51.8838 58.9573 1
    endloop
  endfacet
  facet normal -1 0 0
    outer loop
      vertex -51.8838 58.9573 1
      vertex -51.8838 57.0427 4
      vertex -51.8838 58.9573 4
    endloop
  endfacet
  facet normal -0.885456 -0.464723 0
    outer loop
      vertex -51.8838 57.0427 1
      vertex -50.994 55.3475 1
      vertex -51.8838 57.0427 4
    endloop
  endfacet
  facet normal -0.885456 -0.464723 0
    outer loop
      vertex -51.8838 57.0427 4
      vertex -50.994 55.3475 1
      vertex -50.994 55.3475 4
    endloop
  endfacet
  facet normal -0.568065 -0.822984 0
    outer loop
      vertex -50.994 55.3475 4
      vertex -50.994 55.3475 1
      vertex -49.4184 54.2599 1
    endloop
  endfacet
  facet normal -0.568065 -0.822984 0
    outer loop
      vertex -49.4184 54.2599 4
      vertex -50.994 55.3475 4
      vertex -49.4184 54.2599 1
    endloop
  endfacet
  facet normal -0.120536 -0.992709 0
    outer loop
      vertex -49.4184 54.2599 4
      vertex -49.4184 54.2599 1
      vertex -47.5179 54.0292 1
    endloop
  endfacet
  facet normal -0.120536 -0.992709 0
    outer loop
      vertex -47.5179 54.0292 4
      vertex -49.4184 54.2599 4
      vertex -47.5179 54.0292 1
    endloop
  endfacet
  facet normal 0.354605 -0.935016 0
    outer loop
      vertex -47.5179 54.0292 4
      vertex -47.5179 54.0292 1
      vertex -45.7277 54.7081 1
    endloop
  endfacet
  facet normal 0.354605 -0.935016 0
    outer loop
      vertex -45.7277 54.7081 4
      vertex -47.5179 54.0292 4
      vertex -45.7277 54.7081 1
    endloop
  endfacet
  facet normal 0.748511 -0.663123 0
    outer loop
      vertex -45.7277 54.7081 4
      vertex -45.7277 54.7081 1
      vertex -44.4582 56.1411 1
    endloop
  endfacet
  facet normal 0.748511 -0.663123 0
    outer loop
      vertex -44.4582 56.1411 4
      vertex -45.7277 54.7081 4
      vertex -44.4582 56.1411 1
    endloop
  endfacet
  facet normal 0.970942 -0.239316 0
    outer loop
      vertex -44.4582 56.1411 4
      vertex -44.4582 56.1411 1
      vertex -44 58 1
    endloop
  endfacet
  facet normal 0.970942 -0.239316 0
    outer loop
      vertex -44 58 4
      vertex -44.4582 56.1411 4
      vertex -44 58 1
    endloop
  endfacet
  facet normal 0.970942 0.239316 0
    outer loop
      vertex -44 58 1
      vertex -44.4582 59.8589 1
      vertex -44.4582 59.8589 4
    endloop
  endfacet
  facet normal 0.970942 0.239316 0
    outer loop
      vertex -44 58 4
      vertex -44 58 1
      vertex -44.4582 59.8589 4
    endloop
  endfacet
  facet normal 0.748511 0.663123 0
    outer loop
      vertex -44.4582 59.8589 1
      vertex -45.7277 61.2919 1
      vertex -45.7277 61.2919 4
    endloop
  endfacet
  facet normal 0.748511 0.663123 0
    outer loop
      vertex -44.4582 59.8589 4
      vertex -44.4582 59.8589 1
      vertex -45.7277 61.2919 4
    endloop
  endfacet
  facet normal 0.354605 0.935016 0
    outer loop
      vertex -47.5179 61.9708 1
      vertex -47.5179 61.9708 4
      vertex -45.7277 61.2919 1
    endloop
  endfacet
  facet normal 0.354605 0.935016 0
    outer loop
      vertex -45.7277 61.2919 1
      vertex -47.5179 61.9708 4
      vertex -45.7277 61.2919 4
    endloop
  endfacet
  facet normal -0.120536 0.992709 0
    outer loop
      vertex -49.4184 61.7401 1
      vertex -49.4184 61.7401 4
      vertex -47.5179 61.9708 1
    endloop
  endfacet
  facet normal -0.120536 0.992709 0
    outer loop
      vertex -47.5179 61.9708 1
      vertex -49.4184 61.7401 4
      vertex -47.5179 61.9708 4
    endloop
  endfacet
  facet normal -0.568065 0.822984 0
    outer loop
      vertex -50.994 60.6525 1
      vertex -50.994 60.6525 4
      vertex -49.4184 61.7401 1
    endloop
  endfacet
  facet normal -0.568065 0.822984 0
    outer loop
      vertex -49.4184 61.7401 1
      vertex -50.994 60.6525 4
      vertex -49.4184 61.7401 4
    endloop
  endfacet
  facet normal -0.885456 0.464723 0
    outer loop
      vertex -51.8838 58.9573 1
      vertex -51.8838 58.9573 4
      vertex -50.994 60.6525 1
    endloop
  endfacet
  facet normal -0.885456 0.464723 0
    outer loop
      vertex -50.994 60.6525 1
      vertex -51.8838 58.9573 4
      vertex -50.994 60.6525 4
    endloop
  endfacet
  facet normal -1 0 0
    outer loop
      vertex -3.88377 -0.957263 1
      vertex -3.88377 -0.957263 4
      vertex -3.88377 0.957263 1
    endloop
  endfacet
  facet normal -1 0 0
    outer loop
      vertex -3.88377 0.957263 1
      vertex -3.88377 -0.957263 4
      vertex -3.88377 0.957263 4
    endloop
  endfacet
  facet normal -0.885456 -0.464723 0
    outer loop
      vertex -3.88377 -0.957263 1
      vertex -2.99404 -2.65249 1
      vertex -3.88377 -0.957263 4
    endloop
  endfacet
  facet normal -0.885456 -0.464723 0
    outer loop
      vertex -3.88377 -0.957263 4
      vertex -2.99404 -2.65249 1
      vertex -2.99404 -2.65249 4
    endloop
  endfacet
  facet normal -0.568065 -0.822984 0
    outer loop
      vertex -2.99404 -2.65249 4
      vertex -2.99404 -2.65249 1
      vertex -1.41842 -3.74006 1
    endloop
  endfacet
  facet normal -0.568065 -0.822984 0
    outer loop
      vertex -1.41842 -3.74006 4
      vertex -2.99404 -2.65249 4
      vertex -1.41842 -3.74006 1
    endloop
  endfacet
  facet normal -0.120536 -0.992709 0
    outer loop
      vertex -1.41842 -3.74006 4
      vertex -1.41842 -3.74006 1
      vertex 0.482147 -3.97083 1
    endloop
  endfacet
  facet normal -0.120536 -0.992709 0
    outer loop
      vertex 0.482147 -3.97083 4
      vertex -1.41842 -3.74006 4
      vertex 0.482147 -3.97083 1
    endloop
  endfacet
  facet normal 0.354605 -0.935016 0
    outer loop
      vertex 0.482147 -3.97083 4
      vertex 0.482147 -3.97083 1
      vertex 2.27226 -3.29194 1
    endloop
  endfacet
  facet normal 0.354605 -0.935016 0
    outer loop
      vertex 2.27226 -3.29194 4
      vertex 0.482147 -3.97083 4
      vertex 2.27226 -3.29194 1
    endloop
  endfacet
  facet normal 0.748511 -0.663123 0
    outer loop
      vertex 2.27226 -3.29194 4
      vertex 2.27226 -3.29194 1
      vertex 3.54182 -1.85889 1
    endloop
  endfacet
  facet normal 0.748511 -0.663123 0
    outer loop
      vertex 3.54182 -1.85889 4
      vertex 2.27226 -3.29194 4
      vertex 3.54182 -1.85889 1
    endloop
  endfacet
  facet normal 0.970942 -0.239316 0
    outer loop
      vertex 3.54182 -1.85889 4
      vertex 3.54182 -1.85889 1
      vertex 4 0 1
    endloop
  endfacet
  facet normal 0.970942 -0.239316 0
    outer loop
      vertex 4 0 4
      vertex 3.54182 -1.85889 4
      vertex 4 0 1
    endloop
  endfacet
  facet normal 0.970942 0.239316 0
    outer loop
      vertex 4 0 1
      vertex 3.54182 1.85889 1
      vertex 3.54182 1.85889 4
    endloop
  endfacet
  facet normal 0.970942 0.239316 0
    outer loop
      vertex 4 0 4
      vertex 4 0 1
      vertex 3.54182 1.85889 4
    endloop
  endfacet
  facet normal 0.748511 0.663123 0
    outer loop
      vertex 3.54182 1.85889 1
      vertex 2.27226 3.29194 1
      vertex 2.27226 3.29194 4
    endloop
  endfacet
  facet normal 0.748511 0.663123 0
    outer loop
      vertex 3.54182 1.85889 4
      vertex 3.54182 1.85889 1
      vertex 2.27226 3.29194 4
    endloop
  endfacet
  facet normal 0.354605 0.935016 0
    outer loop
      vertex 0.482147 3.97083 1
      vertex 0.482147 3.97083 4
      vertex 2.27226 3.29194 1
    endloop
  endfacet
  facet normal 0.354605 0.935016 0
    outer loop
      vertex 2.27226 3.29194 1
      vertex 0.482147 3.97083 4
      vertex 2.27226 3.29194 4
    endloop
  endfacet
  facet normal -0.120536 0.992709 0
    outer loop
      vertex -1.41842 3.74006 1
      vertex -1.41842 3.74006 4
      vertex 0.482147 3.97083 1
    endloop
  endfacet
  facet normal -0.120536 0.992709 0
    outer loop
      vertex 0.482147 3.97083 1
      vertex -1.41842 3.74006 4
      vertex 0.482147 3.97083 4
    endloop
  endfacet
  facet normal -0.568065 0.822984 0
    outer loop
      vertex -2.99404 2.65249 1
      vertex -2.99404 2.65249 4
      vertex -1.41842 3.74006 1
    endloop
  endfacet
  facet normal -0.568065 0.822984 0
    outer loop
      vertex -1.41842 3.74006 1
      vertex -2.99404 2.65249 4
      vertex -1.41842 3.74006 4
    endloop
  endfacet
  facet normal -0.885456 0.464723 0
    outer loop
      vertex -3.88377 0.957263 1
      vertex -3.88377 0.957263 4
      vertex -2.99404 2.65249 1
    endloop
  endfacet
  facet normal -0.885456 0.464723 0
    outer loop
      vertex -2.99404 2.65249 1
      vertex -3.88377 0.957263 4
      vertex -2.99404 2.65249 4
    endloop
  endfacet
  facet normal -1 0 0
    outer loop
      vertex -3.88377 57.0427 1
      vertex -3.88377 57.0427 4
      vertex -3.88377 58.9573 1
    endloop
  endfacet
  facet normal -1 0 0
    outer loop
      vertex -3.88377 58.9573 1
      vertex -3.88377 57.0427 4
      vertex -3.88377 58.9573 4
    endloop
  endfacet
  facet normal -0.885456 -0.464723 0
    outer loop
      vertex -3.88377 57.0427 1
      vertex -2.99404 55.3475 1
      vertex -3.88377 57.0427 4
    endloop
  endfacet
  facet normal -0.885456 -0.464723 0
    outer loop
      vertex -3.88377 57.0427 4
      vertex -2.99404 55.3475 1
      vertex -2.99404 55.3475 4
    endloop
  endfacet
  facet normal -0.568065 -0.822984 0
    outer loop
      vertex -2.99404 55.3475 4
      vertex -2.99404 55.3475 1
      vertex -1.41842 54.2599 1
    endloop
  endfacet
  facet normal -0.568065 -0.822984 0
    outer loop
      vertex -1.41842 54.2599 4
      vertex -2.99404 55.3475 4
      vertex -1.41842 54.2599 1
    endloop
  endfacet
  facet normal -0.120536 -0.992709 0
    outer loop
      vertex -1.41842 54.2599 4
      vertex -1.41842 54.2599 1
      vertex 0.482147 54.0292 1
    endloop
  endfacet
  facet normal -0.120536 -0.992709 0
    outer loop
      vertex 0.482147 54.0292 4
      vertex -1.41842 54.2599 4
      vertex 0.482147 54.0292 1
    endloop
  endfacet
  facet normal 0.354605 -0.935016 0
    outer loop
      vertex 0.482147 54.0292 4
      vertex 0.482147 54.0292 1
      vertex 2.27226 54.7081 1
    endloop
  endfacet
  facet normal 0.354605 -0.935016 0
    outer loop
      vertex 2.27226 54.7081 4
      vertex 0.482147 54.0292 4
      vertex 2.27226 54.7081 1
    endloop
  endfacet
  facet normal 0.748511 -0.663123 0
    outer loop
      vertex 2.27226 54.7081 4
      vertex 2.27226 54.7081 1
      vertex 3.54182 56.1411 1
    endloop
  endfacet
  facet normal 0.748511 -0.663123 0
    outer loop
      vertex 3.54182 56.1411 4
      vertex 2.27226 54.7081 4
      vertex 3.54182 56.1411 1
    endloop
  endfacet
  facet normal 0.970942 -0.239316 0
    outer loop
      vertex 3.54182 56.1411 4
      vertex 3.54182 56.1411 1
      vertex 4 58 1
    endloop
  endfacet
  facet normal 0.970942 -0.239316 0
    outer loop
      vertex 4 58 4
      vertex 3.54182 56.1411 4
      vertex 4 58 1
    endloop
  endfacet
  facet normal 0.970942 0.239316 0
    outer loop
      vertex 4 58 1
      vertex 3.54182 59.8589 1
      vertex 3.54182 59.8589 4
    endloop
  endfacet
  facet normal 0.970942 0.239316 0
    outer loop
      vertex 4 58 4
      vertex 4 58 1
      vertex 3.54182 59.8589 4
    endloop
  endfacet
  facet normal 0.748511 0.663123 0
    outer loop
      vertex 3.54182 59.8589 1
      vertex 2.27226 61.2919 1
      vertex 2.27226 61.2919 4
    endloop
  endfacet
  facet normal 0.748511 0.663123 0
    outer loop
      vertex 3.54182 59.8589 4
      vertex 3.54182 59.8589 1
      vertex 2.27226 61.2919 4
    endloop
  endfacet
  facet normal 0.354605 0.935016 0
    outer loop
      vertex 0.482147 61.9708 1
      vertex 0.482147 61.9708 4
      vertex 2.27226 61.2919 1
    endloop
  endfacet
  facet normal 0.354605 0.935016 0
    outer loop
      vertex 2.27226 61.2919 1
      vertex 0.482147 61.9708 4
      vertex 2.27226 61.2919 4
    endloop
  endfacet
  facet normal -0.120536 0.992709 0
    outer loop
      vertex -1.41842 61.7401 1
      vertex -1.41842 61.7401 4
      vertex 0.482147 61.9708 1
    endloop
  endfacet
  facet normal -0.120536 0.992709 0
    outer loop
      vertex 0.482147 61.9708 1
      vertex -1.41842 61.7401 4
      vertex 0.482147 61.9708 4
    endloop
  endfacet
  facet normal -0.568065 0.822984 0
    outer loop
      vertex -2.99404 60.6525 1
      vertex -2.99404 60.6525 4
      vertex -1.41842 61.7401 1
    endloop
  endfacet
  facet normal -0.568065 0.822984 0
    outer loop
      vertex -1.41842 61.7401 1
      vertex -2.99404 60.6525 4
      vertex -1.41842 61.7401 4
    endloop
  endfacet
  facet normal -0.885456 0.464723 0
    outer loop
      vertex -3.88377 58.9573 1
      vertex -3.88377 58.9573 4
      vertex -2.99404 60.6525 1
    endloop
  endfacet
  facet normal -0.885456 0.464723 0
    outer loop
      vertex -2.99404 60.6525 1
      vertex -3.88377 58.9573 4
      vertex -2.99404 60.6525 4
    endloop
  endfacet
  facet normal 0 0 1
    outer loop
      vertex -51.8838 0.957263 4
      vertex -51.8838 -0.957263 4
      vertex -50.994 -2.65249 4
    endloop
  endfacet
  facet normal 0 0 1
    outer loop
      vertex -50.4271 -1.76336 4
      vertex -51.8838 0.957263 4
      vertex -49.4184 -3.74006 4
    endloop
  endfacet
  facet normal 0 0 1
    outer loop
      vertex -49.4184 -3.74006 4
      vertex -51.8838 0.957263 4
      vertex -50.994 -2.65249 4
    endloop
  endfacet
  facet normal 0 0 1
    outer loop
      vertex -47.0729 2.85317 4
      vertex -45.5729 1.76336 4
      vertex -45.7277 3.29194 4
    endloop
  endfacet
  facet normal 0 0 1
    outer loop
      vertex -48.9271 2.85317 4
      vertex -47.0729 2.85317 4
      vertex -45.7277 3.29194 4
    endloop
  endfacet
  facet normal 0 0 1
    outer loop
      vertex -49.4184 3.74006 4
      vertex -51.8838 0.957263 4
      vertex -47.5179 3.97083 4
    endloop
  endfacet
  facet normal 0 0 1
    outer loop
      vertex -50.994 2.65249 4
      vertex -51.8838 0.957263 4
      vertex -49.4184 3.74006 4
    endloop
  endfacet
  facet normal 0 0 1
    outer loop
      vertex -47.5179 -3.97083 4
      vertex -50.4271 -1.76336 4
      vertex -49.4184 -3.74006 4
    endloop
  endfacet
  facet normal 0 0 1
    outer loop
      vertex -45.5729 1.76336 4
      vertex -44 0 4
      vertex -44.4582 1.85889 4
    endloop
  endfacet
  facet normal 0 0 1
    outer loop
      vertex -45.5729 1.76336 4
      vertex -45 0 4
      vertex -44 0 4
    endloop
  endfacet
  facet normal 0 0 1
    outer loop
      vertex -47.5179 3.97083 4
      vertex -51.8838 0.957263 4
      vertex -50.4271 1.76336 4
    endloop
  endfacet
  facet normal 0 0 1
    outer loop
      vertex -47.5179 3.97083 4
      vertex -48.9271 2.85317 4
      vertex -45.7277 3.29194 4
    endloop
  endfacet
  facet normal 0 0 1
    outer loop
      vertex -47.5179 3.97083 4
      vertex -50.4271 1.76336 4
      vertex -48.9271 2.85317 4
    endloop
  endfacet
  facet normal 0 0 1
    outer loop
      vertex -45.7277 3.29194 4
      vertex -45.5729 1.76336 4
      vertex -44.4582 1.85889 4
    endloop
  endfacet
  facet normal 0 0 1
    outer loop
      vertex -45.5729 -1.76336 4
      vertex -47.0729 -2.85317 4
      vertex -45.7277 -3.29194 4
    endloop
  endfacet
  facet normal 0 0 1
    outer loop
      vertex -44 0 4
      vertex -45 0 4
      vertex -44.4582 -1.85889 4
    endloop
  endfacet
  facet normal 0 0 1
    outer loop
      vertex -44.4582 -1.85889 4
      vertex -45.5729 -1.76336 4
      vertex -45.7277 -3.29194 4
    endloop
  endfacet
  facet normal 0 0 1
    outer loop
      vertex -45.7277 -3.29194 4
      vertex -47.0729 -2.85317 4
      vertex -47.5179 -3.97083 4
    endloop
  endfacet
  facet normal 0 0 1
    outer loop
      vertex -47.5179 -3.97083 4
      vertex -48.9271 -2.85317 4
      vertex -50.4271 -1.76336 4
    endloop
  endfacet
  facet normal 0 0 1
    outer loop
      vertex -50.4271 -1.76336 4
      vertex -51 0 4
      vertex -51.8838 0.957263 4
    endloop
  endfacet
  facet normal 0 0 1
    outer loop
      vertex -45 0 4
      vertex -45.5729 -1.76336 4
      vertex -44.4582 -1.85889 4
    endloop
  endfacet
  facet normal 0 0 1
    outer loop
      vertex -47.0729 -2.85317 4
      vertex -48.9271 -2.85317 4
      vertex -47.5179 -3.97083 4
    endloop
  endfacet
  facet normal 0 0 1
    outer loop
      vertex -51 0 4
      vertex -50.4271 1.76336 4
      vertex -51.8838 0.957263 4
    endloop
  endfacet
  facet normal 0 0 1
    outer loop
      vertex -51.8838 58.9573 4
      vertex -51.8838 57.0427 4
      vertex -50.994 55.3475 4
    endloop
  endfacet
  facet normal 0 0 1
    outer loop
      vertex -50.4271 56.2366 4
      vertex -51.8838 58.9573 4
      vertex -49.4184 54.2599 4
    endloop
  endfacet
  facet normal 0 0 1
    outer loop
      vertex -49.4184 54.2599 4
      vertex -51.8838 58.9573 4
      vertex -50.994 55.3475 4
    endloop
  endfacet
  facet normal 0 0 1
    outer loop
      vertex -47.0729 60.8532 4
      vertex -45.5729 59.7634 4
      vertex -45.7277 61.2919 4
    endloop
  endfacet
  facet normal 0 0 1
    outer loop
      vertex -48.9271 60.8532 4
      vertex -47.0729 60.8532 4
      vertex -45.7277 61.2919 4
    endloop
  endfacet
  facet normal 0 0 1
    outer loop
      vertex -49.4184 61.7401 4
      vertex -51.8838 58.9573 4
      vertex -47.5179 61.9708 4
    endloop
  endfacet
  facet normal 0 0 1
    outer loop
      vertex -50.994 60.6525 4
      vertex -51.8838 58.9573 4
      vertex -49.4184 61.7401 4
    endloop
  endfacet
  facet normal 0 0 1
    outer loop
      vertex -47.5179 54.0292 4
      vertex -50.4271 56.2366 4
      vertex -49.4184 54.2599 4
    endloop
  endfacet
  facet normal 0 0 1
    outer loop
      vertex -45.5729 59.7634 4
      vertex -44 58 4
      vertex -44.4582 59.8589 4
    endloop
  endfacet
  facet normal 0 0 1
    outer loop
      vertex -45.5729 59.7634 4
      vertex -45 58 4
      vertex -44 58 4
    endloop
  endfacet
  facet normal 0 0 1
    outer loop
      vertex -47.5179 61.9708 4
      vertex -51.8838 58.9573 4
      vertex -50.4271 59.7634 4
    endloop
  endfacet
  facet normal 0 0 1
    outer loop
      vertex -47.5179 61.9708 4
      vertex -48.9271 60.8532 4
      vertex -45.7277 61.2919 4
    endloop
  endfacet
  facet normal 0 0 1
    outer loop
      vertex -47.5179 61.9708 4
      vertex -50.4271 59.7634 4
      vertex -48.9271 60.8532 4
    endloop
  endfacet
  facet normal 0 0 1
    outer loop
      vertex -45.7277 61.2919 4
      vertex -45.5729 59.7634 4
      vertex -44.4582 59.8589 4
    endloop
  endfacet
  facet normal 0 0 1
    outer loop
      vertex -45.5729 56.2366 4
      vertex -47.0729 55.1468 4
      vertex -45.7277 54.7081 4
    endloop
  endfacet
  facet normal 0 0 1
    outer loop
      vertex -44 58 4
      vertex -45 58 4
      vertex -44.4582 56.1411 4
    endloop
  endfacet
  facet normal 0 0 1
    outer loop
      vertex -44.4582 56.1411 4
      vertex -45.5729 56.2366 4
      vertex -45.7277 54.7081 4
    endloop
  endfacet
  facet normal 0 0 1
    outer loop
      vertex -45.7277 54.7081 4
      vertex -47.0729 55.1468 4
      vertex -47.5179 54.0292 4
    endloop
  endfacet
  facet normal 0 0 1
    outer loop
      vertex -47.5179 54.0292 4
      vertex -48.9271 55.1468 4
      vertex -50.4271 56.2366 4
    endloop
  endfacet
  facet normal 0 0 1
    outer loop
      vertex -50.4271 56.2366 4
      vertex -51 58 4
      vertex -51.8838 58.9573 4
    endloop
  endfacet
  facet normal 0 0 1
    outer loop
      vertex -45 58 4
      vertex -45.5729 56.2366 4
      vertex -44.4582 56.1411 4
    endloop
  endfacet
  facet normal 0 0 1
    outer loop
      vertex -47.0729 55.1468 4
      vertex -48.9271 55.1468 4
      vertex -47.5179 54.0292 4
    endloop
  endfacet
  facet normal 0 0 1
    outer loop
      vertex -51 58 4
      vertex -50.4271 59.7634 4
      vertex -51.8838 58.9573 4
    endloop
  endfacet
  facet normal 0 0 1
    outer loop
      vertex -3.88377 0.957263 4
      vertex -3.88377 -0.957263 4
      vertex -2.99404 -2.65249 4
    endloop
  endfacet
  facet normal 0 0 1
    outer loop
      vertex -2.42705 -1.76336 4
      vertex -3.88377 0.957263 4
      vertex -1.41842 -3.74006 4
    endloop
  endfacet
  facet normal 0 0 1
    outer loop
      vertex -1.41842 -3.74006 4
      vertex -3.88377 0.957263 4
      vertex -2.99404 -2.65249 4
    endloop
  endfacet
  facet normal 0 0 1
    outer loop
      vertex 0.927051 2.85317 4
      vertex 2.42705 1.76336 4
      vertex 2.27226 3.29194 4
    endloop
  endfacet
  facet normal 0 0 1
    outer loop
      vertex -0.927051 2.85317 4
      vertex 0.927051 2.85317 4
      vertex 2.27226 3.29194 4
    endloop
  endfacet
  facet normal 0 0 1
    outer loop
      vertex -1.41842 3.74006 4
      vertex -3.88377 0.957263 4
      vertex 0.482147 3.97083 4
    endloop
  endfacet
  facet normal 0 0 1
    outer loop
      vertex -2.99404 2.65249 4
      vertex -3.88377 0.957263 4
      vertex -1.41842 3.74006 4
    endloop
  endfacet
  facet normal 0 0 1
    outer loop
      vertex 0.482147 -3.97083 4
      vertex -2.42705 -1.76336 4
      vertex -1.41842 -3.74006 4
    endloop
  endfacet
  facet normal 0 0 1
    outer loop
      vertex 2.42705 1.76336 4
      vertex 4 0 4
      vertex 3.54182 1.85889 4
    endloop
  endfacet
  facet normal 0 0 1
    outer loop
      vertex 2.42705 1.76336 4
      vertex 3 0 4
      vertex 4 0 4
    endloop
  endfacet
  facet normal 0 0 1
    outer loop
      vertex 0.482147 3.97083 4
      vertex -3.88377 0.957263 4
      vertex -2.42705 1.76336 4
    endloop
  endfacet
  facet normal 0 0 1
    outer loop
      vertex 0.482147 3.97083 4
      vertex -0.927051 2.85317 4
      vertex 2.27226 3.29194 4
    endloop
  endfacet
  facet normal 0 0 1
    outer loop
      vertex 0.482147 3.97083 4
      vertex -2.42705 1.76336 4
      vertex -0.927051 2.85317 4
    endloop
  endfacet
  facet normal 0 0 1
    outer loop
      vertex 2.27226 3.29194 4
      vertex 2.42705 1.76336 4
      vertex 3.54182 1.85889 4
    endloop
  endfacet
  facet normal 0 0 1
    outer loop
      vertex 2.42705 -1.76336 4
      vertex 0.927051 -2.85317 4
      vertex 2.27226 -3.29194 4
    endloop
  endfacet
  facet normal 0 0 1
    outer loop
      vertex 4 0 4
      vertex 3 0 4
      vertex 3.54182 -1.85889 4
    endloop
  endfacet
  facet normal 0 0 1
    outer loop
      vertex 3.54182 -1.85889 4
      vertex 2.42705 -1.76336 4
      vertex 2.27226 -3.29194 4
    endloop
  endfacet
  facet normal 0 0 1
    outer loop
      vertex 2.27226 -3.29194 4
      vertex 0.927051 -2.85317 4
      vertex 0.482147 -3.97083 4
    endloop
  endfacet
  facet normal 0 0 1
    outer loop
      vertex 0.482147 -3.97083 4
      vertex -0.927051 -2.85317 4
      vertex -2.42705 -1.76336 4
    endloop
  endfacet
  facet normal 0 0 1
    outer loop
      vertex -2.42705 -1.76336 4
      vertex -3 0 4
      vertex -3.88377 0.957263 4
    endloop
  endfacet
  facet normal 0 0 1
    outer loop
      vertex 3 0 4
      vertex 2.42705 -1.76336 4
      vertex 3.54182 -1.85889 4
    endloop
  endfacet
  facet normal 0 0 1
    outer loop
      vertex 0.927051 -2.85317 4
      vertex -0.927051 -2.85317 4
      vertex 0.482147 -3.97083 4
    endloop
  endfacet
  facet normal 0 0 1
    outer loop
      vertex -3 0 4
      vertex -2.42705 1.76336 4
      vertex -3.88377 0.957263 4
    endloop
  endfacet
  facet normal 0 0 1
    outer loop
      vertex -3.88377 58.9573 4
      vertex -3.88377 57.0427 4
      vertex -2.99404 55.3475 4
    endloop
  endfacet
  facet normal 0 0 1
    outer loop
      vertex -2.42705 56.2366 4
      vertex -3.88377 58.9573 4
      vertex -1.41842 54.2599 4
    endloop
  endfacet
  facet normal 0 0 1
    outer loop
      vertex -1.41842 54.2599 4
      vertex -3.88377 58.9573 4
      vertex -2.99404 55.3475 4
    endloop
  endfacet
  facet normal 0 0 1
    outer loop
      vertex 0.927051 60.8532 4
      vertex 2.42705 59.7634 4
      vertex 2.27226 61.2919 4
    endloop
  endfacet
  facet normal 0 0 1
    outer loop
      vertex -0.927051 60.8532 4
      vertex 0.927051 60.8532 4
      vertex 2.27226 61.2919 4
    endloop
  endfacet
  facet normal 0 0 1
    outer loop
      vertex -1.41842 61.7401 4
      vertex -3.88377 58.9573 4
      vertex 0.482147 61.9708 4
    endloop
  endfacet
  facet normal 0 0 1
    outer loop
      vertex -2.99404 60.6525 4
      vertex -3.88377 58.9573 4
      vertex -1.41842 61.7401 4
    endloop
  endfacet
  facet normal 0 0 1
    outer loop
      vertex 0.482147 54.0292 4
      vertex -2.42705 56.2366 4
      vertex -1.41842 54.2599 4
    endloop
  endfacet
  facet normal 0 0 1
    outer loop
      vertex 2.42705 59.7634 4
      vertex 4 58 4
      vertex 3.54182 59.8589 4
    endloop
  endfacet
  facet normal 0 0 1
    outer loop
      vertex 2.42705 59.7634 4
      vertex 3 58 4
      vertex 4 58 4
    endloop
  endfacet
  facet normal 0 0 1
    outer loop
      vertex 0.482147 61.9708 4
      vertex -3.88377 58.9573 4
      vertex -2.42705 59.7634 4
    endloop
  endfacet
  facet normal 0 0 1
    outer loop
      vertex 0.482147 61.9708 4
      vertex -0.927051 60.8532 4
      vertex 2.27226 61.2919 4
    endloop
  endfacet
  facet normal 0 0 1
    outer loop
      vertex 0.482147 61.9708 4
      vertex -2.42705 59.7634 4
      vertex -0.927051 60.8532 4
    endloop
  endfacet
  facet normal 0 0 1
    outer loop
      vertex 2.27226 61.2919 4
      vertex 2.42705 59.7634 4
      vertex 3.54182 59.8589 4
    endloop
  endfacet
  facet normal 0 0 1
    outer loop
      vertex 2.42705 56.2366 4
      vertex 0.927051 55.1468 4
      vertex 2.27226 54.7081 4
    endloop
  endfacet
  facet normal 0 0 1
    outer loop
      vertex 4 58 4
      vertex 3 58 4
      vertex 3.54182 56.1411 4
    endloop
  endfacet
  facet normal 0 0 1
    outer loop
      vertex 3.54182 56.1411 4
      vertex 2.42705 56.2366 4
      vertex 2.27226 54.7081 4
    endloop
  endfacet
  facet normal 0 0 1
    outer loop
      vertex 2.27226 54.7081 4
      vertex 0.927051 55.1468 4
      vertex 0.482147 54.0292 4
    endloop
  endfacet
  facet normal 0 0 1
    outer loop
      vertex 0.482147 54.0292 4
      vertex -0.927051 55.1468 4
      vertex -2.42705 56.2366 4
    endloop
  endfacet
  facet normal 0 0 1
    outer loop
      vertex -2.42705 56.2366 4
      vertex -3 58 4
      vertex -3.88377 58.9573 4
    endloop
  endfacet
  facet normal 0 0 1
    outer loop
      vertex 3 58 4
      vertex 2.42705 56.2366 4
      vertex 3.54182 56.1411 4
    endloop
  endfacet
  facet normal 0 0 1
    outer loop
      vertex 0.927051 55.1468 4
      vertex -0.927051 55.1468 4
      vertex 0.482147 54.0292 4
    endloop
  endfacet
  facet normal 0 0 1
    outer loop
      vertex -3 58 4
      vertex -2.42705 59.7634 4
      vertex -3.88377 58.9573 4
    endloop
  endfacet
endsolid OpenSCAD_Model
